
<svg xmlns="http://www.w3.org/2000/svg" viewBox="-0.5 -0.5 16 16" fill="none" stroke="#000000" stroke-linecap="round"
    stroke-linejoin="round" id="Tournament--Streamline-Tabler.svg" height="16" width="16">
    <desc>Tournament Streamline Icon: https://streamlinehq.com</desc>
    <path d="M1.25 2.5a1.25 1.25 0 1 0 2.5 0 1.25 1.25 0 1 0 -2.5 0" stroke-width="1"></path>
    <path d="M11.25 6.25a1.25 1.25 0 1 0 2.5 0 1.25 1.25 0 1 0 -2.5 0" stroke-width="1"></path>
    <path d="M1.25 7.5a1.25 1.25 0 1 0 2.5 0 1.25 1.25 0 1 0 -2.5 0" stroke-width="1"></path>
    <path d="M1.25 12.5a1.25 1.25 0 1 0 2.5 0 1.25 1.25 0 1 0 -2.5 0" stroke-width="1"></path>
    <path d="M3.75 7.5h1.875a0.625 0.625 0 0 1 0.625 0.625v3.75a0.625 0.625 0 0 1 -0.625 0.625H3.75" stroke-width="1">
    </path>
    <path d="M3.75 2.5h4.375a0.625 0.625 0 0 1 0.625 0.625v6.25a0.625 0.625 0 0 1 -0.625 0.625h-1.25" stroke-width="1">
    </path>
    <path d="M8.75 6.25h2.5" stroke-width="1"></path>
</svg>
